<?xml version="1.0" standalone="no"?>
<!DOCTYPE svg PUBLIC "-//W3C//DTD SVG 20010904//EN" "http://www.w3.org/TR/2001/REC-SVG-20010904/DTD/svg10.dtd">
<svg version="1.0" xmlns="http://www.w3.org/2000/svg"
    width="329.000000pt" height="329.000000pt" viewBox="0 0 329.000000 329.000000"
    preserveAspectRatio="xMidYMid meet">

    <g transform="translate(0.000000,329.000000) scale(0.100000,-0.100000)"
        fill="#000000" stroke="none">
        <path
            d="M1312 3062 c-13 -13 -24 -58 -40 -167 -12 -82 -23 -149 -25 -150 -1
-1 -49 -24 -107 -52 -58 -28 -136 -74 -175 -102 -38 -28 -73 -51 -77 -51 -4 0
-68 27 -142 60 -108 49 -138 59 -158 51 -17 -6 -67 -83 -181 -281 -129 -220
-158 -277 -155 -303 3 -28 18 -43 125 -122 l122 -90 -7 -60 c-9 -77 -9 -212 0
-295 l7 -65 -91 -65 c-137 -97 -158 -117 -158 -152 0 -20 49 -114 151 -291 83
-144 159 -268 167 -275 26 -20 52 -14 182 43 69 30 130 55 135 55 6 0 42 -23
80 -51 66 -48 238 -139 262 -139 19 0 21 -10 37 -165 12 -107 21 -154 33 -167
15 -17 39 -18 340 -18 301 0 324 1 342 19 18 18 23 48 37 216 4 44 10 86 14
93 4 8 42 29 84 48 63 27 165 89 261 158 9 7 57 -10 152 -53 116 -52 142 -61
164 -53 19 8 63 75 182 281 86 148 157 281 157 294 0 27 -28 55 -158 157 l-82
65 7 60 c10 76 10 210 1 295 l-7 65 91 65 c137 97 158 117 158 152 0 20 -49
114 -151 291 -83 144 -159 268 -167 275 -26 20 -52 14 -182 -43 -69 -30 -130
-55 -135 -55 -6 0 -42 23 -80 51 -66 48 -238 139 -262 139 -19 0 -21 10 -37
165 -12 107 -21 154 -33 167 -15 17 -39 18 -340 18 -298 0 -324 -1 -341 -18z
m485 -678 c296 -61 526 -290 587 -586 84 -408 -178 -808 -586 -892 -408 -84
-808 178 -892 586 -40 193 -1 406 104 563 174 262 484 392 787 329z" />
        <path
            d="M1710 1955 c0 -2 -36 -137 -81 -300 -44 -164 -77 -301 -72 -305 4 -5
17 -10 27 -12 17 -3 28 28 97 282 43 157 80 294 81 304 2 14 -5 22 -24 27 -16
4 -28 6 -28 4z" />
        <path
            d="M1267 1782 l-137 -137 138 -138 138 -137 39 40 39 40 -94 95 -95 95
98 98 97 98 -43 42 -43 42 -137 -138z" />
        <path
            d="M1865 1880 l-39 -40 97 -98 97 -97 -97 -98 -98 -97 40 -40 40 -40
138 138 137 137 -138 138 -138 137 -39 -40z" />
    </g>
</svg>